# xmcd CD database file
#
# Track frame offsets:
#	150
#	12830
#	23843
#	39035
#	50063
#	62200
#	73538
#	84503
#	90492
#	103039
#	116551
#	133091
#	145684
#	157019
#
# Disc length: 2357 seconds
#
# Revision: 3
# Processed by: cddbd v1.5.2PL0 Copyright (c) Steve Scherf et al.
# Submitted via: CDex 1.70beta2
#
DISCID=b509330e
DTITLE=Various Artist - Country Lovesongs
DYEAR=2003
DGENRE=Country
TTITLE0=Freddy Fender - Since i met you Baby
TTITLE1=Anne Murray - The last thing my mind
TTITLE2=Kenny Rogers - For the good times
TTITLE3=Sandy Posey - I take it back
TTITLE4=Stonewall Jackson - I love you because
TTITLE5=Dolly Parton - Makin' believe
TTITLE6=Hank Locklin - Send i told you lately that i love you
TTITLE7=Jim Reeves - Have i told you latley that i love you
TTITLE8=Wanda Jackson - Crazy
TTITLE9=Johnny Paycheck - She's mine
TTITLE10=Frankie Laine - I believe in you
TTITLE11=Connie Smith - The hurtin's all over
TTITLE12=Patsy Cline - Just out of reach
TTITLE13=Bellamy Brothers - If i said you had a beautifull body
EXTD=YEAR: 2003
EXTT0=
EXTT1=
EXTT2=
EXTT3=
EXTT4=
EXTT5=
EXTT6=
EXTT7=
EXTT8=
EXTT9=
EXTT10=
EXTT11=
EXTT12=
EXTT13=
PLAYORDER=
